<svg width="1711" height="158" viewBox="0 0 1711 158" fill="none" xmlns="http://www.w3.org/2000/svg">
<g filter="url(#filter0_d_1609_41)">
<circle cx="308" cy="75" r="75" fill="#FF0066"/>
<g filter="url(#filter1_d_1609_41)">
<circle cx="308" cy="75" r="70" fill="black"/>
<path d="M321.687 48.8057C315.662 48.8057 310.459 52.2618 307.845 57.3031C305.23 52.2618 300.027 48.8057 294.002 48.8057C285.365 48.8057 278.368 55.8999 278.368 64.6312C278.368 73.3626 283.724 81.3663 290.645 87.9408C297.566 94.5153 307.845 100.778 307.845 100.778C307.845 100.778 317.79 94.6193 325.044 87.9408C332.782 80.8206 337.321 73.3886 337.321 64.6312C337.321 55.8739 330.324 48.8057 321.687 48.8057Z" fill="white"/>
<path d="M276.197 119.681C269.45 119.681 264.452 117.943 261.203 114.964C257.955 111.738 256.205 106.773 256.205 99.8226V87.6595C256.205 84.4326 255.456 81.9503 253.956 80.2127C252.457 78.4751 249.958 77.7304 246.46 77.7304H243.461V68.546H246.46C248.209 68.546 249.708 68.2978 250.958 68.0496C252.207 67.5531 253.207 67.0567 253.956 66.312C254.706 65.5673 255.206 64.5744 255.706 63.3333C255.956 62.0921 256.205 60.6028 256.205 59.1134V50.6737C256.205 47.4468 256.705 44.468 257.455 41.9858C258.205 39.5035 259.454 37.2695 260.953 35.7801C262.703 34.0425 264.702 32.8014 267.201 32.0567C269.95 31.312 272.948 30.8156 276.447 30.8156H280.445V39.7517H277.446C275.947 39.7517 274.448 39.9999 273.198 40.2482C271.949 40.7446 270.949 41.2411 269.95 41.9858C268.95 42.7304 268.45 43.9716 267.95 45.2127C267.451 46.4538 267.201 48.1914 267.201 50.1773V58.617C267.201 60.851 266.951 63.0851 266.701 64.8226C266.201 66.5602 265.701 67.8014 264.952 69.0425C264.202 70.2836 263.202 71.0283 261.703 71.773C260.454 72.2695 258.954 72.7659 257.205 73.0141C260.704 73.5106 263.202 74.7517 264.952 76.9858C266.701 79.2198 267.451 82.695 267.451 87.4113V99.5744C267.451 101.56 267.701 103.298 268.2 104.787C268.7 106.028 269.45 107.269 270.199 108.014C271.199 108.759 272.199 109.503 273.448 109.752C274.698 110 276.197 110.248 277.696 110.248H280.695V119.433H276.197V119.681Z" fill="white"/>
<path d="M339.307 119.681C346.054 119.681 351.051 117.943 354.3 114.964C357.549 111.738 359.298 106.773 359.298 99.8226V87.6595C359.298 84.4326 360.048 81.9503 361.547 80.2127C363.046 78.4751 365.545 77.7304 369.044 77.7304H372.042V68.546H369.044C367.295 68.546 365.795 68.2978 364.546 68.0496C363.296 67.5531 362.297 67.0567 361.547 66.312C360.797 65.5673 360.298 64.5744 359.798 63.3333C359.548 62.0921 359.298 60.6028 359.298 59.1134V50.6737C359.298 47.4468 358.798 44.468 358.048 41.9858C357.299 39.5035 356.049 37.2695 354.55 35.7801C352.801 34.0425 350.802 32.8014 348.303 32.0567C345.554 31.312 342.555 30.8156 339.057 30.8156H335.058V39.7517H338.057C339.556 39.7517 341.056 39.9999 342.305 40.2482C343.555 40.7446 344.554 41.2411 345.554 41.9858C346.553 42.7304 347.053 43.9716 347.553 45.2127C348.053 46.4539 348.303 48.1914 348.303 50.1773V58.617C348.303 60.851 348.553 63.0851 348.802 64.8226C349.302 66.5602 349.802 67.8014 350.552 69.0425C351.301 70.2836 352.301 71.0283 353.8 71.773C355.05 72.2695 356.549 72.7659 358.298 73.0141C354.8 73.5106 352.301 74.7517 350.552 76.9858C348.802 79.2198 348.053 82.695 348.053 87.4113V99.5744C348.053 101.56 347.803 103.298 347.303 104.787C346.803 106.028 346.054 107.269 345.304 108.014C344.304 108.759 343.305 109.503 342.055 109.752C340.806 110 339.307 110.248 337.807 110.248H334.808V119.433H339.307V119.681Z" fill="white"/>
</g>
</g>
<path d="M57.2159 65.8977H43.0114C42.822 64.4394 42.4337 63.1231 41.8466 61.9489C41.2595 60.7746 40.483 59.7708 39.517 58.9375C38.5511 58.1042 37.4053 57.4697 36.0795 57.0341C34.7727 56.5795 33.3239 56.3523 31.733 56.3523C28.911 56.3523 26.4773 57.0436 24.4318 58.4261C22.4053 59.8087 20.8428 61.8068 19.7443 64.4205C18.6648 67.0341 18.125 70.197 18.125 73.9091C18.125 77.7727 18.6742 81.0114 19.7727 83.625C20.8902 86.2197 22.4527 88.1799 24.4602 89.5057C26.4867 90.8125 28.8826 91.4659 31.6477 91.4659C33.2008 91.4659 34.6117 91.267 35.8807 90.8693C37.1686 90.4716 38.2955 89.8939 39.2614 89.1364C40.2462 88.3598 41.0511 87.4223 41.6761 86.3239C42.3201 85.2064 42.7652 83.947 43.0114 82.5455L57.2159 82.6307C56.9697 85.2064 56.2216 87.7443 54.9716 90.2443C53.7405 92.7443 52.0455 95.0265 49.8864 97.0909C47.7273 99.1364 45.0947 100.765 41.9886 101.977C38.9015 103.189 35.3598 103.795 31.3636 103.795C26.0985 103.795 21.3826 102.64 17.2159 100.33C13.0682 98 9.79167 94.6098 7.38636 90.1591C4.98106 85.7083 3.77841 80.2917 3.77841 73.9091C3.77841 67.5076 5 62.0814 7.44318 57.6307C9.88636 53.1799 13.1913 49.7992 17.358 47.4886C21.5246 45.178 26.1932 44.0227 31.3636 44.0227C34.8864 44.0227 38.1439 44.5152 41.1364 45.5C44.1288 46.4659 46.7614 47.8864 49.0341 49.7614C51.3068 51.6174 53.1534 53.8996 54.5739 56.608C55.9943 59.3163 56.875 62.4129 57.2159 65.8977ZM79.1548 44.8182V103H65.2628V44.8182H79.1548ZM87.9972 103V59.3636H101.889V103H87.9972ZM94.9574 54.2784C93.0066 54.2784 91.3305 53.6345 89.929 52.3466C88.5275 51.0398 87.8267 49.4678 87.8267 47.6307C87.8267 45.8125 88.5275 44.2595 89.929 42.9716C91.3305 41.6648 93.0066 41.0114 94.9574 41.0114C96.9271 41.0114 98.6032 41.6648 99.9858 42.9716C101.387 44.2595 102.088 45.8125 102.088 47.6307C102.088 49.4678 101.387 51.0398 99.9858 52.3466C98.6032 53.6345 96.9271 54.2784 94.9574 54.2784ZM131.101 103.824C126.499 103.824 122.55 102.877 119.254 100.983C115.978 99.089 113.459 96.4564 111.697 93.0852C109.936 89.6951 109.055 85.7746 109.055 81.3239C109.055 76.8542 109.936 72.9337 111.697 69.5625C113.478 66.1723 116.006 63.5303 119.283 61.6364C122.578 59.7424 126.508 58.7955 131.072 58.7955C135.107 58.7955 138.62 59.5246 141.612 60.983C144.624 62.4413 146.972 64.5057 148.658 67.1761C150.362 69.8277 151.262 72.9432 151.357 76.5227H138.374C138.108 74.2879 137.351 72.536 136.101 71.267C134.87 69.9981 133.26 69.3636 131.271 69.3636C129.661 69.3636 128.25 69.8182 127.038 70.7273C125.826 71.6174 124.879 72.9432 124.197 74.7045C123.535 76.447 123.203 78.6061 123.203 81.1818C123.203 83.7576 123.535 85.9356 124.197 87.7159C124.879 89.4773 125.826 90.8125 127.038 91.7216C128.25 92.6117 129.661 93.0568 131.271 93.0568C132.559 93.0568 133.696 92.7822 134.68 92.233C135.684 91.6837 136.508 90.8788 137.152 89.8182C137.796 88.7386 138.203 87.4318 138.374 85.8977H151.357C151.224 89.4962 150.324 92.6402 148.658 95.3295C147.01 98.0189 144.69 100.112 141.697 101.608C138.724 103.085 135.192 103.824 131.101 103.824ZM170.994 91.5511L171.051 74.9886H172.983L185.256 59.3636H200.994L182.756 81.75H179.091L170.994 91.5511ZM158.466 103V44.8182H172.358V103H158.466ZM185.568 103L174.148 84.875L183.295 75.017L201.619 103H185.568Z" fill="#FF0066"/>
<path d="M432.705 107.739C429.92 107.739 427.449 107.275 425.29 106.347C423.15 105.4 421.455 103.979 420.205 102.085C418.973 100.172 418.358 97.7765 418.358 94.8977C418.358 92.4735 418.784 90.428 419.636 88.7614C420.489 87.0947 421.663 85.7405 423.159 84.6989C424.655 83.6572 426.379 82.8712 428.33 82.3409C430.28 81.7917 432.364 81.4223 434.58 81.233C437.061 81.0057 439.059 80.7689 440.574 80.5227C442.089 80.2576 443.188 79.8883 443.869 79.4148C444.57 78.9223 444.92 78.2311 444.92 77.3409V77.1989C444.92 75.7405 444.419 74.6136 443.415 73.8182C442.411 73.0227 441.057 72.625 439.352 72.625C437.515 72.625 436.038 73.0227 434.92 73.8182C433.803 74.6136 433.093 75.7121 432.79 77.1136L419.977 76.6591C420.356 74.0076 421.331 71.6402 422.903 69.5568C424.494 67.4545 426.672 65.8068 429.438 64.6136C432.222 63.4015 435.564 62.7955 439.466 62.7955C442.25 62.7955 444.816 63.1269 447.165 63.7898C449.513 64.4337 451.559 65.3807 453.301 66.6307C455.044 67.8617 456.388 69.3769 457.335 71.1761C458.301 72.9754 458.784 75.0303 458.784 77.3409V107H445.716V100.92H445.375C444.598 102.398 443.604 103.648 442.392 104.67C441.199 105.693 439.788 106.46 438.159 106.972C436.549 107.483 434.731 107.739 432.705 107.739ZM436.994 98.6477C438.491 98.6477 439.835 98.3447 441.028 97.7386C442.241 97.1326 443.206 96.2992 443.926 95.2386C444.646 94.1591 445.006 92.9091 445.006 91.4886V87.3409C444.608 87.5492 444.125 87.7386 443.557 87.9091C443.008 88.0795 442.402 88.2405 441.739 88.392C441.076 88.5436 440.394 88.6761 439.693 88.7898C438.992 88.9034 438.32 89.0076 437.676 89.1023C436.369 89.3106 435.252 89.6326 434.324 90.0682C433.415 90.5038 432.714 91.072 432.222 91.7727C431.748 92.4545 431.511 93.2689 431.511 94.2159C431.511 95.6553 432.023 96.7538 433.045 97.5114C434.087 98.2689 435.403 98.6477 436.994 98.6477ZM481.17 82.1136V107H467.278V63.3636H480.489V71.375H480.972C481.938 68.7045 483.585 66.6117 485.915 65.0966C488.244 63.5625 491.019 62.7955 494.239 62.7955C497.307 62.7955 499.968 63.4867 502.222 64.8693C504.494 66.233 506.256 68.1458 507.506 70.608C508.775 73.0511 509.4 75.911 509.381 79.1875V107H495.489V81.9148C495.508 79.4905 494.892 77.5966 493.642 76.233C492.411 74.8693 490.697 74.1875 488.5 74.1875C487.042 74.1875 485.754 74.5095 484.636 75.1534C483.538 75.7784 482.686 76.678 482.08 77.8523C481.492 79.0265 481.189 80.447 481.17 82.1136ZM533.919 107.625C530.699 107.625 527.773 106.792 525.141 105.125C522.508 103.458 520.406 100.958 518.834 97.625C517.262 94.2917 516.476 90.1534 516.476 85.2102C516.476 80.0777 517.29 75.8542 518.919 72.5398C520.548 69.2254 522.679 66.7727 525.311 65.1818C527.963 63.5909 530.813 62.7955 533.862 62.7955C536.154 62.7955 538.114 63.1932 539.743 63.9886C541.372 64.7652 542.716 65.7689 543.777 67C544.838 68.2311 545.643 69.5095 546.192 70.8352H546.476V48.8182H560.368V107H546.618V99.9261H546.192C545.605 101.271 544.771 102.53 543.692 103.705C542.612 104.879 541.258 105.826 539.629 106.545C538.019 107.265 536.116 107.625 533.919 107.625ZM538.749 96.8011C540.434 96.8011 541.874 96.3277 543.067 95.3807C544.26 94.4148 545.179 93.0606 545.822 91.3182C546.466 89.5758 546.788 87.5303 546.788 85.1818C546.788 82.7955 546.466 80.7405 545.822 79.017C545.197 77.2936 544.279 75.9678 543.067 75.0398C541.874 74.1117 540.434 73.6477 538.749 73.6477C537.025 73.6477 535.567 74.1212 534.374 75.0682C533.18 76.0152 532.271 77.3504 531.646 79.0739C531.04 80.7973 530.737 82.8333 530.737 85.1818C530.737 87.5303 531.05 89.5758 531.675 91.3182C532.3 93.0606 533.199 94.4148 534.374 95.3807C535.567 96.3277 537.025 96.8011 538.749 96.8011ZM624.438 76.6875L611.682 77.0284C611.549 76.1193 611.189 75.3144 610.602 74.6136C610.015 73.8939 609.248 73.3352 608.301 72.9375C607.373 72.5208 606.294 72.3125 605.062 72.3125C603.453 72.3125 602.08 72.6345 600.943 73.2784C599.826 73.9223 599.277 74.7936 599.295 75.892C599.277 76.7443 599.617 77.483 600.318 78.108C601.038 78.733 602.316 79.2348 604.153 79.6136L612.562 81.2045C616.919 82.0379 620.157 83.4205 622.278 85.3523C624.419 87.2841 625.498 89.8409 625.517 93.0227C625.498 96.0152 624.608 98.6193 622.847 100.835C621.104 103.051 618.718 104.775 615.688 106.006C612.657 107.218 609.191 107.824 605.29 107.824C599.059 107.824 594.144 106.545 590.545 103.989C586.966 101.413 584.92 97.9659 584.409 93.6477L598.131 93.3068C598.434 94.8977 599.22 96.1098 600.489 96.9432C601.758 97.7765 603.377 98.1932 605.347 98.1932C607.127 98.1932 608.576 97.8617 609.693 97.1989C610.811 96.536 611.379 95.6553 611.398 94.5568C611.379 93.572 610.943 92.786 610.091 92.1989C609.239 91.5928 607.903 91.1193 606.085 90.7784L598.472 89.3295C594.097 88.5341 590.839 87.0663 588.699 84.9261C586.559 82.767 585.498 80.0208 585.517 76.6875C585.498 73.7708 586.275 71.2803 587.847 69.2159C589.419 67.1326 591.653 65.5417 594.551 64.4432C597.449 63.3447 600.867 62.7955 604.807 62.7955C610.716 62.7955 615.375 64.036 618.784 66.517C622.193 68.9792 624.078 72.3693 624.438 76.6875ZM656.987 63.3636V73.5909H629.459V63.3636H656.987ZM635.226 52.9091H649.118V93.2784C649.118 94.1307 649.25 94.822 649.516 95.3523C649.8 95.8636 650.207 96.233 650.737 96.4602C651.268 96.6686 651.902 96.7727 652.641 96.7727C653.171 96.7727 653.73 96.7254 654.317 96.6307C654.923 96.517 655.377 96.4223 655.68 96.3466L657.783 106.375C657.12 106.564 656.182 106.801 654.97 107.085C653.777 107.369 652.347 107.549 650.68 107.625C647.423 107.777 644.629 107.398 642.3 106.489C639.989 105.561 638.218 104.121 636.987 102.17C635.775 100.22 635.188 97.767 635.226 94.8125V52.9091ZM676.376 107.739C673.592 107.739 671.121 107.275 668.962 106.347C666.821 105.4 665.126 103.979 663.876 102.085C662.645 100.172 662.03 97.7765 662.03 94.8977C662.03 92.4735 662.456 90.428 663.308 88.7614C664.161 87.0947 665.335 85.7405 666.831 84.6989C668.327 83.6572 670.051 82.8712 672.001 82.3409C673.952 81.7917 676.036 81.4223 678.251 81.233C680.732 81.0057 682.731 80.7689 684.246 80.5227C685.761 80.2576 686.859 79.8883 687.541 79.4148C688.242 78.9223 688.592 78.2311 688.592 77.3409V77.1989C688.592 75.7405 688.09 74.6136 687.087 73.8182C686.083 73.0227 684.729 72.625 683.024 72.625C681.187 72.625 679.71 73.0227 678.592 73.8182C677.475 74.6136 676.765 75.7121 676.462 77.1136L663.649 76.6591C664.028 74.0076 665.003 71.6402 666.575 69.5568C668.166 67.4545 670.344 65.8068 673.109 64.6136C675.893 63.4015 679.236 62.7955 683.138 62.7955C685.922 62.7955 688.488 63.1269 690.837 63.7898C693.185 64.4337 695.231 65.3807 696.973 66.6307C698.715 67.8617 700.06 69.3769 701.007 71.1761C701.973 72.9754 702.456 75.0303 702.456 77.3409V107H689.388V100.92H689.047C688.27 102.398 687.276 103.648 686.064 104.67C684.871 105.693 683.46 106.46 681.831 106.972C680.221 107.483 678.403 107.739 676.376 107.739ZM680.666 98.6477C682.162 98.6477 683.507 98.3447 684.7 97.7386C685.912 97.1326 686.878 96.2992 687.598 95.2386C688.318 94.1591 688.678 92.9091 688.678 91.4886V87.3409C688.28 87.5492 687.797 87.7386 687.229 87.9091C686.679 88.0795 686.073 88.2405 685.411 88.392C684.748 88.5436 684.066 88.6761 683.365 88.7898C682.664 88.9034 681.992 89.0076 681.348 89.1023C680.041 89.3106 678.924 89.6326 677.996 90.0682C677.087 90.5038 676.386 91.072 675.893 91.7727C675.42 92.4545 675.183 93.2689 675.183 94.2159C675.183 95.6553 675.695 96.7538 676.717 97.5114C677.759 98.2689 679.075 98.6477 680.666 98.6477ZM710.95 107V63.3636H724.445V71.3182H724.899C725.695 68.4394 726.992 66.2992 728.791 64.8977C730.59 63.4773 732.683 62.767 735.07 62.767C735.714 62.767 736.376 62.8144 737.058 62.9091C737.74 62.9848 738.375 63.108 738.962 63.2784V75.3523C738.299 75.125 737.428 74.9451 736.348 74.8125C735.287 74.6799 734.34 74.6136 733.507 74.6136C731.859 74.6136 730.373 74.983 729.047 75.7216C727.74 76.4413 726.708 77.4545 725.95 78.7614C725.212 80.0492 724.842 81.5644 724.842 83.3068V107H710.95ZM771.284 63.3636V73.5909H743.756V63.3636H771.284ZM749.523 52.9091H763.415V93.2784C763.415 94.1307 763.547 94.822 763.812 95.3523C764.097 95.8636 764.504 96.233 765.034 96.4602C765.564 96.6686 766.199 96.7727 766.938 96.7727C767.468 96.7727 768.027 96.7254 768.614 96.6307C769.22 96.517 769.674 96.4223 769.977 96.3466L772.08 106.375C771.417 106.564 770.479 106.801 769.267 107.085C768.074 107.369 766.644 107.549 764.977 107.625C761.72 107.777 758.926 107.398 756.597 106.489C754.286 105.561 752.515 104.121 751.284 102.17C750.072 100.22 749.485 97.767 749.523 94.8125V52.9091ZM804.054 123.364C802.387 123.364 800.815 123.231 799.338 122.966C797.861 122.72 796.592 122.388 795.531 121.972L798.599 111.886C799.963 112.341 801.194 112.606 802.293 112.682C803.41 112.758 804.366 112.578 805.162 112.142C805.976 111.725 806.601 110.977 807.037 109.898L807.577 108.591L792.065 63.3636H806.611L814.651 94.5H815.105L823.259 63.3636H837.889L821.44 111.176C820.645 113.563 819.518 115.665 818.06 117.483C816.62 119.32 814.755 120.759 812.463 121.801C810.19 122.843 807.387 123.364 804.054 123.364ZM862.179 107.824C857.596 107.824 853.656 106.886 850.361 105.011C847.084 103.117 844.556 100.485 842.776 97.1136C841.014 93.7235 840.134 89.7936 840.134 85.3239C840.134 80.8352 841.014 76.9053 842.776 73.5341C844.556 70.1439 847.084 67.5114 850.361 65.6364C853.656 63.7424 857.596 62.7955 862.179 62.7955C866.762 62.7955 870.692 63.7424 873.969 65.6364C877.264 67.5114 879.793 70.1439 881.554 73.5341C883.334 76.9053 884.224 80.8352 884.224 85.3239C884.224 89.7936 883.334 93.7235 881.554 97.1136C879.793 100.485 877.264 103.117 873.969 105.011C870.692 106.886 866.762 107.824 862.179 107.824ZM862.264 97.3409C863.931 97.3409 865.342 96.8295 866.497 95.8068C867.652 94.7841 868.533 93.3636 869.139 91.5455C869.764 89.7273 870.077 87.625 870.077 85.2386C870.077 82.8144 869.764 80.6932 869.139 78.875C868.533 77.0568 867.652 75.6364 866.497 74.6136C865.342 73.5909 863.931 73.0795 862.264 73.0795C860.541 73.0795 859.082 73.5909 857.889 74.6136C856.715 75.6364 855.815 77.0568 855.19 78.875C854.584 80.6932 854.281 82.8144 854.281 85.2386C854.281 87.625 854.584 89.7273 855.19 91.5455C855.815 93.3636 856.715 94.7841 857.889 95.8068C859.082 96.8295 860.541 97.3409 862.264 97.3409ZM919.494 88.1648V63.3636H933.358V107H920.119V98.875H919.665C918.699 101.545 917.051 103.667 914.722 105.239C912.411 106.792 909.617 107.568 906.341 107.568C903.367 107.568 900.754 106.886 898.5 105.523C896.246 104.159 894.494 102.256 893.244 99.8125C891.994 97.3504 891.36 94.4716 891.341 91.1761V63.3636H905.233V88.4489C905.252 90.8163 905.877 92.6818 907.108 94.0455C908.339 95.4091 910.015 96.0909 912.136 96.0909C913.519 96.0909 914.759 95.7879 915.858 95.1818C916.975 94.5568 917.856 93.6572 918.5 92.483C919.163 91.2898 919.494 89.8504 919.494 88.1648ZM942.2 107V63.3636H955.695V71.3182H956.149C956.945 68.4394 958.242 66.2992 960.041 64.8977C961.84 63.4773 963.933 62.767 966.32 62.767C966.964 62.767 967.626 62.8144 968.308 62.9091C968.99 62.9848 969.625 63.108 970.212 63.2784V75.3523C969.549 75.125 968.678 74.9451 967.598 74.8125C966.537 74.6799 965.59 74.6136 964.757 74.6136C963.109 74.6136 961.623 74.983 960.297 75.7216C958.99 76.4413 957.958 77.4545 957.2 78.7614C956.462 80.0492 956.092 81.5644 956.092 83.3068V107H942.2ZM993.06 107V63.3636H1006.95V107H993.06ZM1000.02 58.2784C998.069 58.2784 996.393 57.6345 994.991 56.3466C993.59 55.0398 992.889 53.4678 992.889 51.6307C992.889 49.8125 993.59 48.2595 994.991 46.9716C996.393 45.6648 998.069 45.0114 1000.02 45.0114C1001.99 45.0114 1003.67 45.6648 1005.05 46.9716C1006.45 48.2595 1007.15 49.8125 1007.15 51.6307C1007.15 53.4678 1006.45 55.0398 1005.05 56.3466C1003.67 57.6345 1001.99 58.2784 1000.02 58.2784ZM1029.69 82.1136V107H1015.79V63.3636H1029V71.375H1029.49C1030.45 68.7045 1032.1 66.6117 1034.43 65.0966C1036.76 63.5625 1039.53 62.7955 1042.75 62.7955C1045.82 62.7955 1048.48 63.4867 1050.74 64.8693C1053.01 66.233 1054.77 68.1458 1056.02 70.608C1057.29 73.0511 1057.92 75.911 1057.9 79.1875V107H1044V81.9148C1044.02 79.4905 1043.41 77.5966 1042.16 76.233C1040.93 74.8693 1039.21 74.1875 1037.02 74.1875C1035.56 74.1875 1034.27 74.5095 1033.15 75.1534C1032.05 75.7784 1031.2 76.678 1030.6 77.8523C1030.01 79.0265 1029.71 80.447 1029.69 82.1136ZM1091.13 63.3636V73.5909H1063.6V63.3636H1091.13ZM1069.37 52.9091H1083.26V93.2784C1083.26 94.1307 1083.39 94.822 1083.66 95.3523C1083.94 95.8636 1084.35 96.233 1084.88 96.4602C1085.41 96.6686 1086.04 96.7727 1086.78 96.7727C1087.31 96.7727 1087.87 96.7254 1088.46 96.6307C1089.06 96.517 1089.52 96.4223 1089.82 96.3466L1091.92 106.375C1091.26 106.564 1090.32 106.801 1089.11 107.085C1087.92 107.369 1086.49 107.549 1084.82 107.625C1081.56 107.777 1078.77 107.398 1076.44 106.489C1074.13 105.561 1072.36 104.121 1071.13 102.17C1069.92 100.22 1069.33 97.767 1069.37 94.8125V52.9091ZM1118.14 107.824C1113.58 107.824 1109.64 106.924 1106.33 105.125C1103.03 103.307 1100.49 100.722 1098.71 97.3693C1096.95 93.9981 1096.07 89.9924 1096.07 85.3523C1096.07 80.8447 1096.96 76.9053 1098.74 73.5341C1100.52 70.1439 1103.03 67.5114 1106.27 65.6364C1109.51 63.7424 1113.32 62.7955 1117.72 62.7955C1120.82 62.7955 1123.67 63.2784 1126.24 64.2443C1128.82 65.2102 1131.04 66.6402 1132.92 68.5341C1134.79 70.428 1136.25 72.767 1137.29 75.5511C1138.33 78.3163 1138.86 81.4886 1138.86 85.0682V88.5341H1100.93V80.4659H1125.93C1125.91 78.9886 1125.56 77.6723 1124.88 76.517C1124.2 75.3617 1123.26 74.4621 1122.07 73.8182C1120.89 73.1553 1119.54 72.8239 1118 72.8239C1116.45 72.8239 1115.06 73.1742 1113.83 73.875C1112.6 74.5568 1111.62 75.4943 1110.9 76.6875C1110.18 77.8617 1109.8 79.197 1109.76 80.6932V88.9034C1109.76 90.6837 1110.11 92.2462 1110.82 93.5909C1111.52 94.9167 1112.51 95.9489 1113.8 96.6875C1115.09 97.4261 1116.62 97.7955 1118.4 97.7955C1119.63 97.7955 1120.75 97.625 1121.75 97.2841C1122.76 96.9432 1123.62 96.4413 1124.34 95.7784C1125.06 95.1155 1125.6 94.3011 1125.96 93.3352L1138.71 93.7045C1138.18 96.5644 1137.02 99.0549 1135.22 101.176C1133.44 103.278 1131.1 104.917 1128.2 106.091C1125.3 107.246 1121.95 107.824 1118.14 107.824ZM1145.95 107V63.3636H1159.44V71.3182H1159.9C1160.69 68.4394 1161.99 66.2992 1163.79 64.8977C1165.59 63.4773 1167.68 62.767 1170.07 62.767C1170.71 62.767 1171.38 62.8144 1172.06 62.9091C1172.74 62.9848 1173.37 63.108 1173.96 63.2784V75.3523C1173.3 75.125 1172.43 74.9451 1171.35 74.8125C1170.29 74.6799 1169.34 74.6136 1168.51 74.6136C1166.86 74.6136 1165.37 74.983 1164.05 75.7216C1162.74 76.4413 1161.71 77.4545 1160.95 78.7614C1160.21 80.0492 1159.84 81.5644 1159.84 83.3068V107H1145.95ZM1223.28 63.3636L1208.31 107H1192.4L1177.46 63.3636H1192.09L1200.13 93.4205H1200.58L1208.65 63.3636H1223.28ZM1228.61 107V63.3636H1242.5V107H1228.61ZM1235.57 58.2784C1233.62 58.2784 1231.94 57.6345 1230.54 56.3466C1229.14 55.0398 1228.44 53.4678 1228.44 51.6307C1228.44 49.8125 1229.14 48.2595 1230.54 46.9716C1231.94 45.6648 1233.62 45.0114 1235.57 45.0114C1237.54 45.0114 1239.21 45.6648 1240.6 46.9716C1242 48.2595 1242.7 49.8125 1242.7 51.6307C1242.7 53.4678 1242 55.0398 1240.6 56.3466C1239.21 57.6345 1237.54 58.2784 1235.57 58.2784ZM1271.74 107.824C1267.17 107.824 1263.23 106.924 1259.92 105.125C1256.63 103.307 1254.09 100.722 1252.31 97.3693C1250.55 93.9981 1249.66 89.9924 1249.66 85.3523C1249.66 80.8447 1250.55 76.9053 1252.34 73.5341C1254.12 70.1439 1256.62 67.5114 1259.86 65.6364C1263.1 63.7424 1266.92 62.7955 1271.31 62.7955C1274.42 62.7955 1277.26 63.2784 1279.84 64.2443C1282.41 65.2102 1284.64 66.6402 1286.51 68.5341C1288.39 70.428 1289.84 72.767 1290.89 75.5511C1291.93 78.3163 1292.45 81.4886 1292.45 85.0682V88.5341H1254.52V80.4659H1279.52C1279.5 78.9886 1279.15 77.6723 1278.47 76.517C1277.79 75.3617 1276.85 74.4621 1275.66 73.8182C1274.48 73.1553 1273.13 72.8239 1271.6 72.8239C1270.04 72.8239 1268.65 73.1742 1267.42 73.875C1266.19 74.5568 1265.21 75.4943 1264.49 76.6875C1263.77 77.8617 1263.4 79.197 1263.36 80.6932V88.9034C1263.36 90.6837 1263.71 92.2462 1264.41 93.5909C1265.11 94.9167 1266.1 95.9489 1267.39 96.6875C1268.68 97.4261 1270.21 97.7955 1271.99 97.7955C1273.23 97.7955 1274.34 97.625 1275.35 97.2841C1276.35 96.9432 1277.21 96.4413 1277.93 95.7784C1278.65 95.1155 1279.19 94.3011 1279.55 93.3352L1292.31 93.7045C1291.78 96.5644 1290.61 99.0549 1288.81 101.176C1287.03 103.278 1284.69 104.917 1281.8 106.091C1278.9 107.246 1275.55 107.824 1271.74 107.824ZM1307.23 107L1295.87 63.3636H1309.81L1315.69 91.3182H1316.06L1322.37 63.3636H1335.98L1342.46 91.1193H1342.83L1348.54 63.3636H1362.48L1351.09 107H1336.23L1329.42 81.5739H1328.93L1322.12 107H1307.23ZM1385.25 63.3636H1399.14V108.818C1399.14 112.417 1398.4 115.277 1396.92 117.398C1395.46 119.519 1393.4 121.044 1390.73 121.972C1388.06 122.9 1384.91 123.364 1381.27 123.364C1380.78 123.364 1380.31 123.354 1379.88 123.335C1379.44 123.316 1378.97 123.297 1378.46 123.278V112.739C1378.8 112.777 1379.1 112.805 1379.37 112.824C1379.63 112.843 1379.9 112.852 1380.16 112.852C1382.07 112.852 1383.4 112.492 1384.14 111.773C1384.88 111.072 1385.25 109.992 1385.25 108.534V63.3636ZM1392.18 58.2784C1390.23 58.2784 1388.55 57.6345 1387.15 56.3466C1385.75 55.0398 1385.05 53.4678 1385.05 51.6307C1385.05 49.8125 1385.75 48.2595 1387.15 46.9716C1388.55 45.6648 1390.23 45.0114 1392.18 45.0114C1394.15 45.0114 1395.82 45.6648 1397.21 46.9716C1398.61 48.2595 1399.31 49.8125 1399.31 51.6307C1399.31 53.4678 1398.61 55.0398 1397.21 56.3466C1395.82 57.6345 1394.15 58.2784 1392.18 58.2784ZM1428.35 107.824C1423.77 107.824 1419.83 106.886 1416.53 105.011C1413.26 103.117 1410.73 100.485 1408.95 97.1136C1407.19 93.7235 1406.31 89.7936 1406.31 85.3239C1406.31 80.8352 1407.19 76.9053 1408.95 73.5341C1410.73 70.1439 1413.26 67.5114 1416.53 65.6364C1419.83 63.7424 1423.77 62.7955 1428.35 62.7955C1432.93 62.7955 1436.86 63.7424 1440.14 65.6364C1443.44 67.5114 1445.96 70.1439 1447.73 73.5341C1449.51 76.9053 1450.4 80.8352 1450.4 85.3239C1450.4 89.7936 1449.51 93.7235 1447.73 97.1136C1445.96 100.485 1443.44 103.117 1440.14 105.011C1436.86 106.886 1432.93 107.824 1428.35 107.824ZM1428.44 97.3409C1430.1 97.3409 1431.51 96.8295 1432.67 95.8068C1433.82 94.7841 1434.71 93.3636 1435.31 91.5455C1435.94 89.7273 1436.25 87.625 1436.25 85.2386C1436.25 82.8144 1435.94 80.6932 1435.31 78.875C1434.71 77.0568 1433.82 75.6364 1432.67 74.6136C1431.51 73.5909 1430.1 73.0795 1428.44 73.0795C1426.71 73.0795 1425.25 73.5909 1424.06 74.6136C1422.89 75.6364 1421.99 77.0568 1421.36 78.875C1420.76 80.6932 1420.45 82.8144 1420.45 85.2386C1420.45 87.625 1420.76 89.7273 1421.36 91.5455C1421.99 93.3636 1422.89 94.7841 1424.06 95.8068C1425.25 96.8295 1426.71 97.3409 1428.44 97.3409ZM1485.67 88.1648V63.3636H1499.53V107H1486.29V98.875H1485.84C1484.87 101.545 1483.22 103.667 1480.89 105.239C1478.58 106.792 1475.79 107.568 1472.51 107.568C1469.54 107.568 1466.93 106.886 1464.67 105.523C1462.42 104.159 1460.67 102.256 1459.42 99.8125C1458.17 97.3504 1457.53 94.4716 1457.51 91.1761V63.3636H1471.4V88.4489C1471.42 90.8163 1472.05 92.6818 1473.28 94.0455C1474.51 95.4091 1476.19 96.0909 1478.31 96.0909C1479.69 96.0909 1480.93 95.7879 1482.03 95.1818C1483.15 94.5568 1484.03 93.6572 1484.67 92.483C1485.33 91.2898 1485.67 89.8504 1485.67 88.1648ZM1508.37 107V63.3636H1521.87V71.3182H1522.32C1523.12 68.4394 1524.41 66.2992 1526.21 64.8977C1528.01 63.4773 1530.11 62.767 1532.49 62.767C1533.14 62.767 1533.8 62.8144 1534.48 62.9091C1535.16 62.9848 1535.8 63.108 1536.38 63.2784V75.3523C1535.72 75.125 1534.85 74.9451 1533.77 74.8125C1532.71 74.6799 1531.76 74.6136 1530.93 74.6136C1529.28 74.6136 1527.79 74.983 1526.47 75.7216C1525.16 76.4413 1524.13 77.4545 1523.37 78.7614C1522.63 80.0492 1522.26 81.5644 1522.26 83.3068V107H1508.37ZM1555.94 82.1136V107H1542.04V63.3636H1555.25V71.375H1555.74C1556.7 68.7045 1558.35 66.6117 1560.68 65.0966C1563.01 63.5625 1565.78 62.7955 1569 62.7955C1572.07 62.7955 1574.73 63.4867 1576.99 64.8693C1579.26 66.233 1581.02 68.1458 1582.27 70.608C1583.54 73.0511 1584.17 75.911 1584.15 79.1875V107H1570.25V81.9148C1570.27 79.4905 1569.66 77.5966 1568.41 76.233C1567.18 74.8693 1565.46 74.1875 1563.27 74.1875C1561.81 74.1875 1560.52 74.5095 1559.4 75.1534C1558.3 75.7784 1557.45 76.678 1556.85 77.8523C1556.26 79.0265 1555.96 80.447 1555.94 82.1136ZM1613.14 107.824C1608.58 107.824 1604.64 106.924 1601.33 105.125C1598.03 103.307 1595.49 100.722 1593.71 97.3693C1591.95 93.9981 1591.07 89.9924 1591.07 85.3523C1591.07 80.8447 1591.96 76.9053 1593.74 73.5341C1595.52 70.1439 1598.03 67.5114 1601.27 65.6364C1604.51 63.7424 1608.32 62.7955 1612.72 62.7955C1615.82 62.7955 1618.67 63.2784 1621.24 64.2443C1623.82 65.2102 1626.04 66.6402 1627.92 68.5341C1629.79 70.428 1631.25 72.767 1632.29 75.5511C1633.33 78.3163 1633.86 81.4886 1633.86 85.0682V88.5341H1595.93V80.4659H1620.93C1620.91 78.9886 1620.56 77.6723 1619.88 76.517C1619.2 75.3617 1618.26 74.4621 1617.07 73.8182C1615.89 73.1553 1614.54 72.8239 1613 72.8239C1611.45 72.8239 1610.06 73.1742 1608.83 73.875C1607.6 74.5568 1606.62 75.4943 1605.9 76.6875C1605.18 77.8617 1604.8 79.197 1604.76 80.6932V88.9034C1604.76 90.6837 1605.11 92.2462 1605.82 93.5909C1606.52 94.9167 1607.51 95.9489 1608.8 96.6875C1610.09 97.4261 1611.62 97.7955 1613.4 97.7955C1614.63 97.7955 1615.75 97.625 1616.75 97.2841C1617.76 96.9432 1618.62 96.4413 1619.34 95.7784C1620.06 95.1155 1620.6 94.3011 1620.96 93.3352L1633.71 93.7045C1633.18 96.5644 1632.02 99.0549 1630.22 101.176C1628.44 103.278 1626.1 104.917 1623.2 106.091C1620.3 107.246 1616.95 107.824 1613.14 107.824ZM1648.27 123.364C1646.61 123.364 1645.03 123.231 1643.56 122.966C1642.08 122.72 1640.81 122.388 1639.75 121.972L1642.82 111.886C1644.18 112.341 1645.41 112.606 1646.51 112.682C1647.63 112.758 1648.59 112.578 1649.38 112.142C1650.2 111.725 1650.82 110.977 1651.26 109.898L1651.8 108.591L1636.28 63.3636H1650.83L1658.87 94.5H1659.32L1667.48 63.3636H1682.11L1665.66 111.176C1664.86 113.563 1663.74 115.665 1662.28 117.483C1660.84 119.32 1658.97 120.759 1656.68 121.801C1654.41 122.843 1651.61 123.364 1648.27 123.364ZM1703.77 48.8182L1702.46 89.1875H1690.79L1689.48 48.8182H1703.77ZM1696.61 107.824C1694.58 107.824 1692.84 107.104 1691.38 105.665C1689.94 104.225 1689.22 102.483 1689.22 100.438C1689.22 98.4299 1689.94 96.7159 1691.38 95.2955C1692.84 93.8561 1694.58 93.1364 1696.61 93.1364C1698.56 93.1364 1700.28 93.8561 1701.75 95.2955C1703.25 96.7159 1704 98.4299 1704 100.438C1704 101.801 1703.65 103.042 1702.95 104.159C1702.26 105.277 1701.36 106.167 1700.25 106.83C1699.15 107.492 1697.94 107.824 1696.61 107.824Z" fill="#FF0066"/>
<defs>
<filter id="filter0_d_1609_41" x="229" y="0" width="158" height="158" filterUnits="userSpaceOnUse" color-interpolation-filters="sRGB">
<feFlood flood-opacity="0" result="BackgroundImageFix"/>
<feColorMatrix in="SourceAlpha" type="matrix" values="0 0 0 0 0 0 0 0 0 0 0 0 0 0 0 0 0 0 127 0" result="hardAlpha"/>
<feOffset dy="4"/>
<feGaussianBlur stdDeviation="2"/>
<feComposite in2="hardAlpha" operator="out"/>
<feColorMatrix type="matrix" values="0 0 0 0 0 0 0 0 0 0 0 0 0 0 0 0 0 0 0.25 0"/>
<feBlend mode="normal" in2="BackgroundImageFix" result="effect1_dropShadow_1609_41"/>
<feBlend mode="normal" in="SourceGraphic" in2="effect1_dropShadow_1609_41" result="shape"/>
</filter>
<filter id="filter1_d_1609_41" x="234" y="5" width="148" height="148" filterUnits="userSpaceOnUse" color-interpolation-filters="sRGB">
<feFlood flood-opacity="0" result="BackgroundImageFix"/>
<feColorMatrix in="SourceAlpha" type="matrix" values="0 0 0 0 0 0 0 0 0 0 0 0 0 0 0 0 0 0 127 0" result="hardAlpha"/>
<feOffset dy="4"/>
<feGaussianBlur stdDeviation="2"/>
<feComposite in2="hardAlpha" operator="out"/>
<feColorMatrix type="matrix" values="0 0 0 0 0 0 0 0 0 0 0 0 0 0 0 0 0 0 0.25 0"/>
<feBlend mode="normal" in2="BackgroundImageFix" result="effect1_dropShadow_1609_41"/>
<feBlend mode="normal" in="SourceGraphic" in2="effect1_dropShadow_1609_41" result="shape"/>
</filter>
</defs>
</svg>
