<svg width="508" height="508" viewBox="0 0 508 508" fill="none" xmlns="http://www.w3.org/2000/svg">
<g filter="url(#filter0_d_1461_35)">
<circle cx="254" cy="250" r="250" fill="black"/>
<path d="M302.881 156.448C281.363 156.448 262.782 168.792 253.444 186.796C244.106 168.792 225.526 156.448 204.007 156.448C173.162 156.448 148.17 181.785 148.17 212.968C148.17 244.151 167.298 272.736 192.017 296.217C216.735 319.697 253.444 342.064 253.444 342.064C253.444 342.064 288.964 320.068 314.872 296.217C342.506 270.787 358.719 244.244 358.719 212.968C358.719 181.692 333.727 156.448 302.881 156.448Z" fill="white"/>
<path d="M140.418 409.574C116.321 409.574 98.4713 403.368 86.8691 392.73C75.2669 381.205 69.0196 363.475 69.0196 338.652V295.212C69.0196 283.688 66.3422 274.822 60.9874 268.617C55.6325 262.411 46.7078 259.751 34.2131 259.751H23.5034V226.95H34.2131C40.4604 226.95 45.8153 226.063 50.2777 225.177C54.74 223.404 58.3099 221.631 60.9874 218.971C63.6648 216.312 65.4497 212.766 67.2347 208.333C68.1272 203.9 69.0196 198.581 69.0196 193.262V163.12C69.0196 151.595 70.8046 140.957 73.482 132.092C76.1594 123.227 80.6218 115.248 85.9766 109.929C92.224 103.723 99.3638 99.2904 108.289 96.6309C118.106 93.9713 128.815 92.1982 141.31 92.1982H155.59V124.113H144.88C139.525 124.113 134.17 125 129.708 125.886C125.246 127.659 121.676 129.432 118.106 132.092C114.536 134.751 112.751 139.184 110.966 143.617C109.181 148.049 108.289 154.255 108.289 161.347V191.489C108.289 199.468 107.396 207.446 106.504 213.652C104.719 219.858 102.934 224.29 100.256 228.723C97.5788 233.156 94.0089 235.815 88.6541 238.475C84.1917 240.248 78.8368 242.021 72.5895 242.907C85.0842 244.681 94.0089 249.113 100.256 257.092C106.504 265.071 109.181 277.482 109.181 294.326V337.766C109.181 344.858 110.073 351.063 111.858 356.383C113.643 360.815 116.321 365.248 118.998 367.907C122.568 370.567 126.138 373.227 130.6 374.113C135.063 375 140.418 375.886 145.772 375.886H156.482V408.688H140.418V409.574Z" fill="white"/>
<path d="M365.809 409.574C389.906 409.574 407.756 403.368 419.358 392.73C430.96 381.205 437.207 363.475 437.207 338.652V295.212C437.207 283.688 439.885 274.822 445.24 268.617C450.595 262.411 459.519 259.751 472.014 259.751H482.724V226.95H472.014C465.767 226.95 460.412 226.063 455.949 225.177C451.487 223.404 447.917 221.631 445.24 218.971C442.562 216.312 440.777 212.766 438.992 208.333C438.1 203.9 437.207 198.581 437.207 193.262V163.12C437.207 151.595 435.422 140.957 432.745 132.092C430.068 123.227 425.605 115.248 420.25 109.929C414.003 103.723 406.863 99.2904 397.939 96.6309C388.121 93.9713 377.412 92.1982 364.917 92.1982H350.637V124.113H361.347C366.702 124.113 372.057 125 376.519 125.886C380.982 127.659 384.551 129.432 388.121 132.092C391.691 134.751 393.476 139.184 395.261 143.617C397.046 148.049 397.939 154.255 397.939 161.347V191.489C397.939 199.468 398.831 207.446 399.723 213.652C401.508 219.858 403.293 224.29 405.971 228.723C408.648 233.156 412.218 235.815 417.573 238.475C422.035 240.248 427.39 242.021 433.638 242.907C421.143 244.681 412.218 249.113 405.971 257.092C399.723 265.071 397.046 277.482 397.046 294.326V337.766C397.046 344.858 396.154 351.063 394.369 356.383C392.584 360.815 389.906 365.248 387.229 367.907C383.659 370.567 380.089 373.227 375.627 374.113C371.164 375 365.809 375.886 360.455 375.886H349.745V408.688H365.809V409.574Z" fill="white"/>
</g>
<defs>
<filter id="filter0_d_1461_35" x="0" y="0" width="508" height="508" filterUnits="userSpaceOnUse" color-interpolation-filters="sRGB">
<feFlood flood-opacity="0" result="BackgroundImageFix"/>
<feColorMatrix in="SourceAlpha" type="matrix" values="0 0 0 0 0 0 0 0 0 0 0 0 0 0 0 0 0 0 127 0" result="hardAlpha"/>
<feOffset dy="4"/>
<feGaussianBlur stdDeviation="2"/>
<feComposite in2="hardAlpha" operator="out"/>
<feColorMatrix type="matrix" values="0 0 0 0 0 0 0 0 0 0 0 0 0 0 0 0 0 0 0.25 0"/>
<feBlend mode="normal" in2="BackgroundImageFix" result="effect1_dropShadow_1461_35"/>
<feBlend mode="normal" in="SourceGraphic" in2="effect1_dropShadow_1461_35" result="shape"/>
</filter>
</defs>
</svg>
